<?xml version="1.0" standalone="no"?>
<!DOCTYPE svg PUBLIC "-//W3C//DTD SVG 20010904//EN"
 "http://www.w3.org/TR/2001/REC-SVG-20010904/DTD/svg10.dtd">
<svg version="1.0" xmlns="http://www.w3.org/2000/svg"
 width="116.000000pt" height="116.000000pt" viewBox="0 0 116.000000 116.000000"
 preserveAspectRatio="xMidYMid meet">
<metadata>
Created by potrace 1.11, written by Peter Selinger 2001-2013
</metadata>
<g transform="translate(0.000000,116.000000) scale(0.100000,-0.100000)"
fill="#000000" stroke="none">
<path d="M515 1063 c-72 -17 -133 -68 -173 -144 -17 -32 -22 -58 -22 -120 0
-46 4 -79 10 -79 6 0 10 -8 10 -17 0 -10 24 -41 53 -68 59 -57 73 -65 227
-121 120 -43 168 -112 140 -201 -25 -77 -79 -113 -170 -113 -60 0 -62 1 -110
49 -35 35 -49 58 -52 82 -4 42 -30 49 -78 22 -46 -26 -57 -46 -42 -77 7 -14
18 -38 24 -53 18 -38 97 -113 120 -113 10 0 18 -3 18 -8 0 -22 182 -42 195
-22 3 5 17 10 30 10 13 0 27 5 30 10 3 6 15 10 26 10 10 0 19 5 19 10 0 6 6
10 14 10 19 0 71 63 96 117 15 32 20 64 20 122 0 44 -4 83 -10 86 -5 3 -10 15
-10 25 0 22 -98 130 -118 130 -7 0 -22 5 -35 12 -48 24 -57 28 -77 28 -11 0
-20 5 -20 10 0 6 -10 10 -22 11 -37 1 -121 52 -139 84 -22 38 -23 65 -3 114
18 45 39 61 103 80 31 9 47 9 54 2 6 -6 21 -11 34 -11 27 0 103 -71 103 -96 0
-13 7 -15 34 -11 46 7 86 35 86 59 0 52 -87 136 -170 165 -34 12 -154 16 -195
6z"/>
</g>
</svg>
